<?xml version="1.0" standalone="no"?>
<!DOCTYPE svg PUBLIC "-//W3C//DTD SVG 20010904//EN"
 "http://www.w3.org/TR/2001/REC-SVG-20010904/DTD/svg10.dtd">
<svg version="1.0" xmlns="http://www.w3.org/2000/svg"
 width="992.000000pt" height="870.000000pt" viewBox="0 0 992.000000 870.000000"
 preserveAspectRatio="xMidYMid meet">

<g transform="translate(0.000000,870.000000) scale(0.100000,-0.100000)"
fill="#000000" stroke="none">
<path d="M7219 7486 c-5 -6 -9 -1131 -9 -3013 l0 -3003 404 0 c359 0 405 2
410 16 8 20 8 5952 0 5981 l-6 23 -395 2 c-239 2 -398 -1 -404 -6z"/>
<path d="M3317 7472 c-10 -10 -17 -25 -17 -33 -1 -8 -9 -32 -20 -54 -11 -22
-19 -48 -20 -57 0 -9 -4 -19 -9 -23 -5 -3 -13 -20 -16 -38 -4 -17 -13 -43 -20
-57 -7 -14 -18 -41 -24 -60 -37 -105 -68 -188 -79 -207 -7 -12 -12 -30 -12
-40 0 -10 -7 -27 -15 -37 -8 -11 -15 -26 -15 -34 0 -8 -6 -28 -14 -45 -7 -18
-23 -59 -35 -92 -37 -99 -52 -138 -67 -173 -8 -18 -14 -38 -14 -45 -1 -7 -9
-30 -20 -52 -11 -22 -19 -48 -20 -57 0 -9 -4 -19 -9 -23 -5 -3 -13 -20 -17
-38 -3 -17 -12 -45 -19 -62 -14 -32 -30 -75 -66 -170 -12 -33 -28 -74 -35 -92
-8 -17 -14 -37 -14 -45 0 -7 -7 -22 -15 -32 -8 -11 -15 -28 -15 -39 0 -10 -5
-28 -12 -40 -7 -12 -24 -56 -39 -97 -15 -41 -37 -100 -49 -130 -12 -30 -26
-71 -32 -90 -5 -19 -14 -39 -19 -44 -5 -6 -9 -17 -9 -25 0 -9 -7 -29 -15 -44
-8 -15 -19 -42 -24 -60 -5 -18 -19 -57 -31 -87 -39 -101 -51 -135 -61 -167 -5
-18 -16 -45 -24 -60 -8 -15 -15 -35 -15 -44 0 -8 -4 -19 -9 -25 -5 -5 -14 -25
-19 -44 -6 -19 -20 -60 -32 -90 -12 -30 -34 -89 -49 -130 -15 -41 -32 -85 -39
-97 -7 -12 -12 -30 -12 -40 0 -11 -7 -28 -15 -39 -8 -10 -15 -25 -15 -32 0 -8
-6 -28 -14 -45 -7 -18 -23 -59 -35 -92 -37 -99 -52 -138 -67 -173 -8 -18 -14
-38 -14 -45 0 -7 -7 -25 -15 -40 -8 -15 -19 -42 -24 -60 -10 -32 -22 -66 -61
-167 -12 -30 -26 -69 -31 -87 -5 -18 -16 -45 -24 -60 -8 -15 -15 -35 -15 -43
0 -9 -4 -20 -9 -25 -5 -6 -14 -26 -19 -45 -6 -19 -20 -60 -32 -90 -12 -30 -34
-89 -49 -130 -15 -41 -32 -85 -39 -97 -7 -12 -12 -30 -12 -40 0 -10 -7 -27
-15 -37 -8 -11 -15 -26 -15 -34 0 -8 -6 -28 -14 -45 -7 -18 -23 -59 -35 -92
-36 -95 -52 -138 -66 -170 -7 -17 -16 -45 -19 -62 -4 -18 -12 -35 -17 -38 -5
-4 -9 -14 -9 -23 -1 -9 -9 -35 -20 -57 -11 -22 -19 -45 -20 -52 0 -7 -6 -27
-14 -45 -15 -35 -30 -74 -67 -173 -12 -33 -28 -74 -35 -92 -8 -17 -14 -37 -14
-45 0 -7 -7 -22 -15 -32 -8 -11 -15 -28 -15 -39 0 -10 -5 -28 -12 -40 -11 -19
-42 -102 -79 -207 -6 -19 -17 -46 -24 -60 -7 -14 -16 -40 -20 -57 -3 -18 -11
-35 -16 -38 -5 -4 -9 -14 -9 -23 0 -9 -7 -30 -15 -45 -8 -15 -19 -42 -24 -60
-5 -18 -19 -57 -31 -87 -13 -30 -25 -70 -27 -87 l-5 -33 420 0 421 0 10 33
c13 43 39 117 50 142 5 11 12 29 14 40 3 11 17 52 32 90 15 39 29 81 32 95 3
14 10 30 15 37 6 7 14 27 18 45 8 29 66 196 83 238 15 36 39 108 47 139 5 18
13 38 19 44 6 6 11 20 11 30 0 10 6 33 14 50 19 45 53 138 59 162 3 11 15 45
27 75 11 30 34 93 50 140 16 47 39 110 50 140 12 30 25 69 29 85 4 17 15 45
25 63 l17 32 1231 -2 1232 -3 49 -140 c27 -77 52 -153 57 -170 5 -16 34 -102
65 -190 31 -88 60 -173 65 -190 17 -57 42 -130 49 -145 5 -9 12 -31 16 -50 4
-19 11 -40 16 -45 4 -6 12 -29 18 -50 5 -22 35 -112 66 -200 31 -88 60 -173
65 -190 8 -30 22 -71 46 -135 7 -19 23 -65 36 -102 l23 -68 418 0 c352 0 418
2 423 14 3 8 -4 36 -15 62 -12 25 -21 54 -21 63 0 9 -7 25 -15 35 -8 11 -15
28 -15 39 0 10 -6 31 -14 45 -8 15 -24 56 -36 92 -12 36 -29 79 -36 97 -8 17
-14 36 -14 42 0 6 -6 25 -14 43 -15 36 -32 80 -67 173 -12 33 -26 69 -30 80
-5 11 -13 34 -18 50 -5 17 -19 55 -31 85 -12 30 -26 71 -32 90 -5 19 -14 40
-18 45 -4 6 -13 26 -18 45 -6 19 -20 60 -32 90 -12 30 -26 71 -32 90 -5 19
-14 39 -19 45 -5 5 -9 16 -9 25 0 8 -7 28 -15 43 -8 15 -19 42 -24 60 -5 18
-19 57 -31 87 -12 30 -26 69 -31 85 -5 17 -13 39 -18 50 -23 53 -51 132 -51
145 0 8 -7 24 -15 34 -8 11 -15 28 -15 39 0 10 -6 31 -14 45 -8 15 -31 74 -51
132 -20 58 -43 117 -51 132 -8 14 -14 33 -14 42 0 8 -6 30 -14 48 -8 18 -25
60 -37 93 -12 33 -26 69 -30 80 -5 11 -13 34 -18 50 -5 17 -19 55 -31 85 -12
30 -26 71 -32 90 -5 19 -14 40 -18 45 -4 6 -13 26 -18 45 -6 19 -20 60 -32 90
-40 104 -51 135 -62 170 -5 19 -14 40 -18 45 -4 6 -13 26 -18 45 -6 19 -20 60
-32 90 -12 30 -26 69 -31 85 -5 17 -13 39 -18 50 -4 11 -18 47 -30 80 -12 33
-29 75 -37 93 -8 18 -14 40 -14 48 0 9 -6 28 -14 42 -8 15 -31 74 -51 132 -20
58 -43 117 -51 132 -8 14 -14 35 -14 45 0 11 -7 28 -15 39 -8 10 -15 26 -15
34 0 13 -28 92 -51 145 -5 11 -13 34 -18 50 -5 17 -19 55 -31 85 -12 30 -26
69 -31 87 -5 18 -16 45 -24 60 -8 15 -15 35 -15 44 0 8 -4 19 -9 25 -5 5 -14
25 -19 44 -6 19 -20 60 -32 90 -12 30 -26 71 -32 90 -5 19 -14 40 -18 45 -4 6
-13 26 -18 45 -6 19 -20 60 -32 90 -12 30 -26 69 -31 85 -5 17 -13 39 -18 50
-4 11 -18 47 -30 80 -12 33 -29 75 -37 93 -8 18 -14 40 -14 50 0 9 -7 26 -15
36 -8 11 -15 26 -15 34 0 8 -6 28 -14 45 -7 18 -24 61 -36 97 -12 36 -28 77
-36 92 -8 14 -14 35 -14 45 0 11 -7 28 -15 39 -8 10 -15 26 -15 34 0 13 -24
80 -51 145 -10 24 -36 98 -49 138 -19 60 4 57 -455 57 -396 0 -423 -1 -438
-18z m445 -879 c14 -17 37 -76 58 -148 4 -16 18 -55 29 -85 12 -30 33 -89 47
-130 14 -41 29 -84 34 -95 12 -25 38 -99 52 -145 5 -19 14 -39 18 -45 4 -5 11
-26 15 -45 4 -19 11 -41 16 -50 11 -19 38 -95 49 -138 4 -18 12 -38 18 -45 5
-7 12 -23 15 -37 3 -14 17 -56 32 -95 15 -38 29 -81 32 -95 3 -14 10 -30 15
-37 6 -7 14 -27 18 -45 11 -43 38 -119 49 -138 5 -9 12 -31 16 -50 4 -19 11
-41 16 -50 11 -19 38 -95 49 -138 4 -18 12 -38 18 -45 5 -7 12 -23 15 -37 3
-14 17 -56 32 -95 15 -38 29 -81 32 -95 3 -14 10 -30 15 -37 6 -7 14 -27 18
-45 11 -43 38 -119 49 -138 5 -9 12 -31 16 -50 4 -19 11 -39 15 -45 4 -5 13
-26 18 -45 14 -46 40 -120 52 -145 5 -11 20 -54 34 -95 14 -41 35 -100 46
-130 32 -81 40 -112 34 -121 -3 -5 -450 -9 -995 -9 -770 0 -989 3 -989 12 0
12 24 84 41 123 15 34 40 108 49 144 5 18 13 38 19 44 6 6 11 18 11 26 0 14
23 79 51 146 15 36 40 110 49 143 4 18 12 38 18 45 5 7 12 23 15 37 5 22 27
85 73 205 8 22 19 54 24 70 12 41 38 116 50 140 14 30 41 106 47 135 3 14 10
30 15 37 6 7 14 27 18 45 10 38 36 114 50 143 14 29 40 105 50 143 4 18 12 38
18 45 5 7 12 23 15 37 6 29 33 105 47 135 12 24 38 99 50 140 10 34 36 110 49
140 28 67 51 132 51 146 0 8 5 20 11 26 6 6 14 26 19 44 9 34 33 107 49 144 7
18 20 54 60 165 7 19 15 44 18 55 10 39 12 45 21 45 5 0 16 -8 24 -17z"/>
</g>
</svg>
