<?xml version="1.0" standalone="no"?>
<!DOCTYPE svg PUBLIC "-//W3C//DTD SVG 20010904//EN"
 "http://www.w3.org/TR/2001/REC-SVG-20010904/DTD/svg10.dtd">
<svg version="1.0" xmlns="http://www.w3.org/2000/svg"
 width="958.000000pt" height="402.000000pt" viewBox="0 0 958.000000 402.000000"
 preserveAspectRatio="xMidYMid meet">

<g transform="translate(0.000000,402.000000) scale(0.100000,-0.100000)"
fill="#000000" stroke="none">
<path d="M4860 2000 l0 -1830 2080 0 2080 0 0 1830 0 1830 -2080 0 -2080 0 0
-1830z m1848 1190 c23 -63 180 -488 348 -945 342 -929 452 -1224 495 -1337 16
-43 29 -82 29 -88 0 -6 -61 -10 -172 -10 l-173 0 -73 218 c-41 119 -94 277
-119 350 l-45 132 -513 0 -513 0 -77 -217 c-42 -120 -98 -278 -123 -350 l-47
-133 -172 0 c-95 0 -173 2 -173 5 0 6 133 369 149 405 6 14 141 376 301 805
160 429 302 807 315 840 12 33 53 143 91 245 37 102 73 188 78 192 6 5 87 7
181 5 l170 -2 43 -115z m1550 -1132 l2 -1248 -170 0 -170 0 0 1244 c0 986 3
1245 13 1250 6 2 82 4 167 3 l155 -2 3 -1247z"/>
<path d="M6472 2924 c-14 -40 -170 -472 -296 -823 -58 -162 -106 -298 -106
-303 0 -4 187 -8 415 -8 228 0 415 2 415 4 0 5 -69 199 -150 426 -27 74 -94
262 -149 418 -55 156 -105 290 -109 299 -8 13 -11 10 -20 -13z"/>
<path d="M3029 3331 c-111 -23 -173 -125 -147 -244 45 -212 398 -189 416 27 7
91 -27 160 -97 196 -45 22 -121 32 -172 21z"/>
<path d="M537 3323 c-4 -3 -7 -618 -7 -1365 l0 -1358 538 0 c586 0 700 7 868
55 304 87 486 275 540 553 18 96 18 260 -2 342 -33 143 -124 276 -249 365 -76
55 -144 86 -255 119 -47 14 -78 25 -70 25 9 1 48 17 88 36 311 149 423 621
220 926 -107 160 -351 273 -645 298 -129 12 -1016 15 -1026 4z m1046 -318
c134 -23 248 -90 302 -176 35 -55 55 -134 55 -219 0 -175 -80 -305 -230 -377
-106 -51 -142 -55 -487 -60 l-323 -5 0 426 0 426 303 0 c212 -1 325 -5 380
-15z m152 -1160 c173 -43 298 -131 351 -248 23 -52 29 -79 32 -163 5 -119 -8
-191 -49 -273 -53 -106 -162 -181 -322 -223 -75 -19 -114 -22 -464 -25 l-383
-5 0 482 0 482 383 -5 c319 -4 393 -7 452 -22z"/>
<path d="M3772 2183 l3 -1148 22 -78 c72 -252 221 -349 538 -351 l140 -1 3
136 3 136 -100 5 c-135 7 -185 31 -223 108 -16 33 -31 87 -38 133 -6 51 -10
458 -10 1143 l0 1064 -170 0 -171 0 3 -1147z"/>
<path d="M2914 2571 c-2 -2 -4 -447 -4 -988 l0 -983 175 0 175 0 -2 986 -3
986 -168 1 c-93 1 -171 0 -173 -2z"/>
</g>
</svg>
