<?xml version="1.0" standalone="no"?>
<!DOCTYPE svg PUBLIC "-//W3C//DTD SVG 20010904//EN"
 "http://www.w3.org/TR/2001/REC-SVG-20010904/DTD/svg10.dtd">
<svg version="1.0" xmlns="http://www.w3.org/2000/svg"
 width="248.000000pt" height="316.000000pt" viewBox="0 0 248.000000 316.000000"
 preserveAspectRatio="xMidYMid meet">

<g transform="translate(0.000000,316.000000) scale(0.100000,-0.100000)"
fill="#000000" stroke="none">
<path d="M1814 3043 c-18 -12 -214 -408 -214 -431 0 -10 -38 -42 -50 -42 -6 0
-10 4 -10 8 0 5 -19 15 -42 21 -23 7 -67 29 -98 49 -75 49 -117 49 -192 0 -31
-21 -68 -42 -83 -48 -14 -6 -45 -23 -68 -39 -23 -15 -53 -32 -66 -36 -13 -4
-44 -22 -68 -41 -25 -19 -49 -34 -55 -34 -9 0 -50 -23 -178 -101 -8 -5 -44
-25 -80 -44 -36 -20 -90 -51 -120 -70 -48 -30 -116 -70 -159 -95 -8 -4 -13
-25 -13 -51 -1 -24 0 -283 1 -575 l1 -531 38 -17 c34 -15 69 -34 282 -151 40
-22 106 -57 147 -78 70 -37 75 -38 93 -22 10 9 27 39 36 66 10 27 22 49 26 49
4 0 8 7 8 16 0 9 8 28 18 42 10 15 28 54 42 87 13 33 31 71 40 85 10 14 23 43
30 65 7 22 44 103 82 180 117 237 212 434 262 547 14 31 30 59 35 63 6 3 11
14 11 24 0 21 58 134 71 139 5 2 9 12 9 22 0 11 17 52 39 93 21 40 42 84 46
97 4 14 20 46 36 73 16 26 29 52 29 57 0 10 172 370 191 400 5 8 19 35 30 60
11 25 32 69 46 98 14 29 23 55 20 58 -9 9 -162 15 -173 7z"/>
<path d="M1836 2351 c-4 -5 -2 -13 4 -16 8 -5 7 -12 -2 -22 -11 -14 -10 -15
12 -8 24 7 24 7 5 -8 -11 -8 -22 -14 -25 -12 -3 2 -6 -7 -6 -20 -1 -13 -11
-37 -23 -53 -12 -17 -21 -36 -21 -44 0 -8 -7 -23 -15 -34 -8 -10 -15 -27 -15
-36 0 -10 -3 -18 -8 -18 -8 0 -38 -64 -48 -104 -3 -14 -11 -26 -16 -26 -6 0
-8 -7 -4 -15 3 -8 1 -15 -5 -15 -6 0 -9 -7 -5 -15 7 -20 -11 -68 -24 -60 -10
6 -12 -3 -14 -61 -1 -17 -7 -38 -14 -46 -7 -9 -10 -22 -6 -31 3 -8 1 -18 -4
-21 -5 -3 -9 1 -8 9 0 7 -3 14 -9 14 -13 1 -14 -30 -2 -46 6 -9 5 -13 -2 -13
-6 0 -14 7 -18 16 -5 12 -9 8 -18 -17 -6 -19 -9 -38 -6 -44 8 -15 8 -45 1 -45
-4 0 -12 10 -18 23 -6 12 -11 16 -11 9 -1 -7 4 -23 10 -34 8 -15 8 -23 -2 -32
-9 -8 -11 -7 -6 6 3 10 2 20 -4 24 -6 3 -13 -3 -16 -15 -3 -12 -9 -21 -13 -21
-10 0 -25 -58 -21 -79 2 -9 -3 -12 -13 -8 -12 5 -16 0 -16 -17 0 -14 -3 -26
-7 -28 -12 -5 -53 -85 -53 -102 0 -8 -5 -16 -11 -18 -6 -2 -13 -26 -17 -53 -3
-32 -7 -43 -12 -31 -5 14 -10 9 -25 -25 -11 -24 -26 -50 -33 -58 -8 -8 -12
-25 -9 -38 2 -13 -1 -23 -7 -23 -14 0 -46 -56 -46 -81 0 -11 -4 -17 -10 -14
-5 3 -10 -1 -10 -10 0 -10 5 -14 13 -10 6 4 4 0 -5 -8 -10 -8 -15 -17 -11 -20
3 -4 -6 -16 -20 -28 -15 -11 -27 -30 -27 -42 0 -12 -12 -32 -27 -45 -26 -21
-26 -23 -6 -19 20 4 21 3 10 -16 -7 -11 -21 -31 -32 -44 -11 -13 -20 -39 -21
-58 0 -18 -8 -41 -17 -50 -10 -9 -17 -23 -17 -31 0 -8 -4 -14 -9 -14 -5 0 -11
-9 -14 -20 -3 -11 -10 -20 -17 -20 -6 0 -8 4 -5 10 3 6 -1 7 -10 3 -13 -5 -14
-7 -3 -14 10 -7 11 -12 1 -29 -16 -25 -16 -33 -1 -24 7 4 8 3 4 -4 -4 -7 0
-12 11 -13 11 0 13 -3 5 -6 -7 -3 -18 0 -25 5 -8 7 -18 7 -27 1 -13 -8 -13
-10 -1 -18 11 -7 10 -13 -8 -32 -32 -35 -52 -80 -45 -103 4 -16 3 -18 -5 -6
-9 12 -11 12 -16 -2 -4 -10 -4 -21 -1 -26 3 -6 -1 -13 -10 -16 -9 -3 -14 -12
-11 -19 3 -7 -3 -13 -13 -13 -11 0 -16 6 -13 16 3 11 2 11 -6 -2 -7 -11 -8
-25 -2 -41 8 -20 5 -28 -16 -45 l-25 -20 23 -13 c22 -11 23 -11 10 4 -12 16
-7 17 71 17 88 0 108 8 108 44 0 10 3 16 7 13 9 -9 45 74 39 90 -3 7 0 13 8
13 7 0 25 27 39 60 30 66 32 74 16 64 -8 -4 -9 1 -4 16 5 15 4 20 -4 16 -6 -4
-11 -3 -11 2 0 16 13 22 27 11 18 -16 45 8 37 33 -4 12 -1 18 8 16 7 -2 12 2
11 9 -3 14 32 27 48 17 8 -4 9 -3 5 4 -5 8 2 12 21 12 21 0 24 -3 13 -10 -12
-7 -11 -10 5 -16 11 -4 26 -15 33 -23 12 -14 13 -14 8 1 -3 10 0 20 6 24 6 4
8 3 5 -3 -4 -6 0 -16 8 -23 14 -11 19 -7 16 12 0 5 6 8 14 8 8 0 15 5 15 11 0
8 4 8 14 0 10 -9 15 -8 20 4 6 16 56 21 56 5 0 -5 23 5 50 22 28 17 50 35 50
40 0 5 5 6 10 3 14 -9 13 8 -2 23 -16 16 -3 15 22 0 16 -11 25 -10 47 4 16 9
27 24 25 31 -1 9 5 14 15 13 10 0 18 6 18 14 0 10 11 15 33 16 33 1 72 24 42
24 -8 1 0 7 19 16 19 8 36 12 39 9 3 -3 -1 -5 -8 -5 -7 0 -11 -3 -8 -6 4 -3
23 5 45 19 21 13 58 37 83 52 25 16 52 29 61 30 9 1 29 12 45 24 16 13 44 29
62 36 18 8 35 21 38 30 3 8 15 15 26 15 10 0 36 11 56 25 20 14 30 25 22 25
-10 0 -11 3 -4 8 11 7 20 107 30 337 2 66 0 219 -6 340 -5 121 -10 261 -11
310 -1 111 -13 162 -39 170 -11 3 -25 3 -31 -1 -7 -4 -9 -3 -6 3 4 6 -3 19
-15 29 -16 15 -22 16 -26 6 -3 -10 -8 -7 -19 8 -10 15 -21 19 -35 14 -13 -4
-18 -2 -14 4 3 6 -3 13 -14 17 -11 3 -19 11 -17 17 1 7 -18 15 -42 20 -51 9
-109 45 -107 67 1 17 -29 27 -38 12z m-261 -731 c3 -5 1 -10 -4 -10 -6 0 -11
5 -11 10 0 6 2 10 4 10 3 0 8 -4 11 -10z m-60 -160 c3 -5 -1 -10 -9 -10 -9 0
-16 5 -16 10 0 6 4 10 9 10 6 0 13 -4 16 -10z m-108 -162 c-3 -8 -6 -5 -6 6
-1 11 2 17 5 13 3 -3 4 -12 1 -19z m483 -492 c0 -3 -4 -8 -10 -11 -5 -3 -10
-1 -10 4 0 6 5 11 10 11 6 0 10 -2 10 -4z m-360 -205 c0 -11 -9 -21 -22 -24
-22 -6 -22 -6 -4 8 11 8 16 15 12 15 -4 0 -4 5 -1 10 9 15 15 12 15 -9z m-40
-5 c0 -2 -7 -7 -16 -10 -8 -3 -12 -2 -9 4 6 10 25 14 25 6z m-550 -236 c0 -5
-5 -10 -11 -10 -5 0 -7 5 -4 10 3 6 8 10 11 10 2 0 4 -4 4 -10z"/>
<path d="M1291 466 c-12 -14 -10 -16 17 -16 17 0 32 6 36 15 4 12 2 13 -13 5
-14 -7 -20 -7 -23 1 -2 7 -9 5 -17 -5z"/>
</g>
</svg>
