<?xml version="1.0" standalone="no"?>
<!DOCTYPE svg PUBLIC "-//W3C//DTD SVG 20010904//EN"
 "http://www.w3.org/TR/2001/REC-SVG-20010904/DTD/svg10.dtd">
<svg version="1.0" xmlns="http://www.w3.org/2000/svg"
 width="500.000000pt" height="500.000000pt" viewBox="0 0 500.000000 500.000000"
 preserveAspectRatio="xMidYMid meet">

<g transform="translate(0.000000,500.000000) scale(0.100000,-0.100000)"
fill="#000000" stroke="none">
<path d="M1690 2863 c-34 -72 -36 -74 -75 -56 l-33 16 -99 -58 c-54 -32 -108
-64 -120 -72 -22 -13 -23 -19 -23 -156 l0 -142 63 -32 c65 -34 87 -40 87 -24
0 10 27 67 188 404 77 158 80 167 57 167 -18 0 -28 -11 -45 -47z"/>
<path d="M2527 2882 c-41 -45 -8 -112 54 -112 35 0 72 44 63 74 -17 55 -83 76
-117 38z"/>
<path d="M2737 2883 c-3 -3 -6 -140 -7 -304 l0 -299 65 0 65 0 -1 263 c0 144
-3 280 -7 302 l-7 40 -52 2 c-28 1 -53 -1 -56 -4z"/>
<path d="M1940 2565 l0 -295 188 3 c170 3 191 5 230 26 62 32 84 72 79 144 -3
49 -8 62 -37 92 -19 19 -41 35 -49 35 -11 0 -8 7 10 23 37 32 49 59 49 112 0
121 -70 155 -317 155 l-153 0 0 -295z m331 166 c26 -31 24 -57 -6 -86 -22 -23
-32 -25 -115 -25 l-90 0 0 71 0 71 96 -4 c86 -4 99 -7 115 -27z m2 -222 c55
-25 55 -103 1 -128 -14 -6 -67 -11 -119 -11 l-95 0 0 75 0 75 95 0 c52 0 105
-5 118 -11z"/>
<path d="M3140 2839 c0 -4 -11 -32 -24 -61 -50 -112 -65 -145 -89 -205 -14
-35 -23 -63 -20 -63 3 0 1 -6 -5 -12 -5 -7 -31 -59 -55 -115 l-46 -103 63 0
63 0 20 53 20 52 145 3 146 3 6 -26 c4 -14 11 -23 16 -20 5 3 7 -1 4 -9 -3 -8
-1 -24 6 -35 9 -18 20 -21 69 -21 l59 0 -23 63 c-12 34 -32 82 -43 107 -12 25
-54 124 -95 220 l-74 175 -71 2 c-40 1 -72 -3 -72 -8z m124 -227 c26 -62 44
-117 40 -123 -7 -12 -190 -7 -188 5 2 11 35 98 49 131 7 17 20 48 29 69 9 22
18 37 20 35 2 -2 25 -55 50 -117z"/>
<path d="M3570 2565 l0 -285 60 0 60 0 0 285 0 285 -60 0 -60 0 0 -285z"/>
<path d="M1701 2686 c-13 -28 -43 -90 -67 -138 -23 -49 -41 -88 -39 -88 2 0
-12 -28 -31 -62 -19 -34 -36 -71 -37 -82 -1 -12 -8 -26 -16 -32 -8 -6 -12 -20
-9 -32 4 -14 2 -19 -7 -16 -7 3 -15 -3 -19 -13 -3 -10 -8 -23 -11 -28 -7 -14
33 -17 41 -3 5 7 2 8 -7 3 -8 -5 -3 4 10 18 14 15 21 30 18 34 -4 3 2 13 14
21 14 10 24 11 31 4 15 -15 120 46 127 73 1 6 5 12 8 15 4 3 3 -1 -1 -7 -11
-19 3 -16 62 15 l52 27 -2 144 c-3 132 -5 145 -23 155 -11 6 -31 18 -45 27
-25 17 -25 17 -49 -35z"/>
<path d="M2512 2493 l3 -218 60 0 60 0 0 215 0 215 -63 3 -62 3 2 -218z"/>
</g>
</svg>
